<?xml version="1.0" encoding="UTF-8"?>
<svg width="313px" height="175px" viewBox="0 0 313 175" version="1.1" xmlns="http://www.w3.org/2000/svg" xmlns:xlink="http://www.w3.org/1999/xlink">
    <!-- Generator: Sketch 51.3 (57544) - http://www.bohemiancoding.com/sketch -->
    <title>Group</title>
    <desc>Created with Sketch.</desc>
    <defs></defs>
    <g id="Page-1" stroke="none" stroke-width="1" fill="none" fill-rule="evenodd">
        <g id="Artboard" transform="translate(-96.000000, -104.000000)">
            <g id="Group" transform="translate(96.000000, 104.000000)">
                <rect id="Rectangle" fill="#1CAAEA" x="0" y="34" width="23" height="24" rx="5"></rect>
                <rect id="Rectangle-Copy-18" fill="#FFBB68" x="176" y="34" width="23" height="24" rx="5"></rect>
                <rect id="Rectangle-Copy-4" fill="#046D9C" x="38" y="34" width="23" height="24" rx="5"></rect>
                <rect id="Rectangle-Copy-19" fill="#FF8B00" x="214" y="34" width="23" height="24" rx="5"></rect>
                <rect id="Rectangle-Copy-8" fill="#00B0FF" x="76" y="34" width="23" height="24" rx="5"></rect>
                <rect id="Rectangle-Copy-21" fill="#FF8B00" x="252" y="34" width="23" height="24" rx="5"></rect>
                <rect id="Rectangle-Copy-12" fill="#68CEFC" x="114" y="34" width="23" height="24" rx="5"></rect>
                <rect id="Rectangle-Copy-22" fill="#FFC600" x="290" y="34" width="23" height="24" rx="5"></rect>
                <rect id="Rectangle-Copy-2" fill="#00E2FF" x="0" y="112" width="23" height="24" rx="5"></rect>
                <rect id="Rectangle-Copy-24" fill-opacity="0.493829257" fill="#FF8B00" x="176" y="112" width="23" height="24" rx="5"></rect>
                <rect id="Rectangle-Copy-5" fill="#00B0FF" x="38" y="112" width="23" height="24" rx="5"></rect>
                <rect id="Rectangle-Copy-25" fill="#FF001F" x="214" y="112" width="23" height="24" rx="5"></rect>
                <rect id="Rectangle-Copy-9" fill-opacity="0.576313406" fill="#00B0FF" x="76" y="112" width="23" height="24" rx="5"></rect>
                <rect id="Rectangle-Copy-26" fill="#FF8B00" x="252" y="112" width="23" height="24" rx="5"></rect>
                <rect id="Rectangle-Copy-13" fill="#00B0FF" x="114" y="112" width="23" height="24" rx="5"></rect>
                <rect id="Rectangle-Copy-27" fill="#BE7722" x="290" y="112" width="23" height="24" rx="5"></rect>
                <rect id="Rectangle-Copy" fill-opacity="0.720052083" fill="#00B0FF" x="0" y="73" width="23" height="24" rx="5"></rect>
                <rect id="Rectangle-Copy-28" fill="#FF8B00" x="176" y="73" width="23" height="24" rx="5"></rect>
                <rect id="Rectangle-Copy-6" fill="#009AFF" x="38" y="73" width="23" height="24" rx="5"></rect>
                <rect id="Rectangle-Copy-29" fill="#FF8B00" x="214" y="73" width="23" height="24" rx="5"></rect>
                <rect id="Rectangle-Copy-10" fill="#00B0FF" x="76" y="73" width="23" height="24" rx="5"></rect>
                <rect id="Rectangle-Copy-30" fill="#93642C" x="252" y="73" width="23" height="24" rx="5"></rect>
                <rect id="Rectangle-Copy-15" fill="#1582B3" x="114" y="73" width="23" height="24" rx="5"></rect>
                <rect id="Rectangle-Copy-31" fill="#FFBC00" x="290" y="73" width="23" height="24" rx="5"></rect>
                <rect id="Rectangle-Copy-3" fill="#0075AA" x="0" y="151" width="23" height="24" rx="5"></rect>
                <rect id="Rectangle-Copy-32" fill="#FF8B00" x="176" y="151" width="23" height="24" rx="5"></rect>
                <rect id="Rectangle-Copy-7" fill="#0050FF" x="38" y="151" width="23" height="24" rx="5"></rect>
                <rect id="Rectangle-Copy-33" fill="#FF8B00" x="214" y="151" width="23" height="24" rx="5"></rect>
                <rect id="Rectangle-Copy-11" fill="#00B0FF" x="76" y="151" width="23" height="24" rx="5"></rect>
                <rect id="Rectangle-Copy-34" fill="#E2800A" x="252" y="151" width="23" height="24" rx="5"></rect>
                <rect id="Rectangle-Copy-16" fill="#00E2FF" x="114" y="151" width="23" height="24" rx="5"></rect>
                <rect id="Rectangle-Copy-35" fill="#D27200" x="290" y="151" width="23" height="24" rx="5"></rect>
                <text id="Category-One" font-family="SofiaPro-Bold, Sofia Pro" font-size="20" font-weight="bold" letter-spacing="0.6" fill="#000000" fill-opacity="0.6">
                    <tspan x="4.26325641e-14" y="14">Category One</tspan>
                </text>
                <text id="Category-Two" font-family="SofiaPro-Bold, Sofia Pro" font-size="20" font-weight="bold" letter-spacing="0.6" fill="#000000" fill-opacity="0.6">
                    <tspan x="177.44" y="14">Category Two</tspan>
                </text>
            </g>
        </g>
    </g>
</svg>