<?xml version="1.0" encoding="UTF-8"?>
<svg width="511px" height="178px" viewBox="0 0 511 178" version="1.1" xmlns="http://www.w3.org/2000/svg" xmlns:xlink="http://www.w3.org/1999/xlink">
    <!-- Generator: Sketch 51.3 (57544) - http://www.bohemiancoding.com/sketch -->
    <title>Group</title>
    <desc>Created with Sketch.</desc>
    <defs></defs>
    <g id="Page-1" stroke="none" stroke-width="1" fill="none" fill-rule="evenodd">
        <g id="Artboard-2" transform="translate(-18.000000, -62.000000)">
            <g id="Group" transform="translate(18.000000, 63.000000)">
                <rect id="Rectangle" fill="#00B0FF" x="0" y="36" width="23" height="24" rx="5"></rect>
                <rect id="Rectangle-Copy-16" fill="#FF8B00" x="187" y="36" width="23" height="24" rx="5"></rect>
                <rect id="Rectangle-Copy-32" fill="#00B0FF" x="374" y="34" width="23" height="24" rx="5"></rect>
                <rect id="Rectangle-Copy-4" fill="#FF8B00" x="38" y="36" width="23" height="24" rx="5"></rect>
                <rect id="Rectangle-Copy-17" fill="#00B0FF" x="225" y="36" width="23" height="24" rx="5"></rect>
                <rect id="Rectangle-Copy-33" fill="#FF8B00" x="412" y="34" width="23" height="24" rx="5"></rect>
                <rect id="Rectangle-Copy-8" fill="#00B0FF" x="76" y="36" width="23" height="24" rx="5"></rect>
                <rect id="Rectangle-Copy-18" fill="#FF8B00" x="263" y="36" width="23" height="24" rx="5"></rect>
                <rect id="Rectangle-Copy-34" fill="#FF8B00" x="450" y="34" width="23" height="24" rx="5"></rect>
                <rect id="Rectangle-Copy-12" fill="#00B0FF" x="114" y="36" width="23" height="24" rx="5"></rect>
                <rect id="Rectangle-Copy-19" fill="#00B0FF" x="301" y="36" width="23" height="24" rx="5"></rect>
                <rect id="Rectangle-Copy-35" fill="#FF8B00" x="488" y="34" width="23" height="24" rx="5"></rect>
                <rect id="Rectangle-Copy-2" fill="#FF8B00" x="0" y="114" width="23" height="24" rx="5"></rect>
                <rect id="Rectangle-Copy-20" fill="#00B0FF" x="187" y="114" width="23" height="24" rx="5"></rect>
                <rect id="Rectangle-Copy-36" fill="#00B0FF" x="374" y="112" width="23" height="24" rx="5"></rect>
                <rect id="Rectangle-Copy-5" fill="#FF8B00" x="38" y="114" width="23" height="24" rx="5"></rect>
                <rect id="Rectangle-Copy-21" fill="#FF8B00" x="225" y="114" width="23" height="24" rx="5"></rect>
                <rect id="Rectangle-Copy-37" fill="#00B0FF" x="412" y="112" width="23" height="24" rx="5"></rect>
                <rect id="Rectangle-Copy-9" fill="#00B0FF" x="76" y="114" width="23" height="24" rx="5"></rect>
                <rect id="Rectangle-Copy-22" fill="#00B0FF" x="263" y="114" width="23" height="24" rx="5"></rect>
                <rect id="Rectangle-Copy-38" fill="#FF8B00" x="450" y="112" width="23" height="24" rx="5"></rect>
                <rect id="Rectangle-Copy-13" fill="#00B0FF" x="114" y="114" width="23" height="24" rx="5"></rect>
                <rect id="Rectangle-Copy-23" fill="#FF8B00" x="301" y="114" width="23" height="24" rx="5"></rect>
                <rect id="Rectangle-Copy-39" fill="#FF8B00" x="488" y="112" width="23" height="24" rx="5"></rect>
                <rect id="Rectangle-Copy" fill="#FF8B00" x="0" y="75" width="23" height="24" rx="5"></rect>
                <rect id="Rectangle-Copy-24" fill="#00B0FF" x="187" y="75" width="23" height="24" rx="5"></rect>
                <rect id="Rectangle-Copy-40" fill="#FF8B00" x="374" y="73" width="23" height="24" rx="5"></rect>
                <rect id="Rectangle-Copy-6" fill="#00B0FF" x="38" y="75" width="23" height="24" rx="5"></rect>
                <rect id="Rectangle-Copy-25" fill="#FF8B00" x="225" y="75" width="23" height="24" rx="5"></rect>
                <rect id="Rectangle-Copy-41" fill="#00B0FF" x="412" y="73" width="23" height="24" rx="5"></rect>
                <rect id="Rectangle-Copy-10" fill="#FF8B00" x="76" y="75" width="23" height="24" rx="5"></rect>
                <rect id="Rectangle-Copy-26" fill="#00B0FF" x="263" y="75" width="23" height="24" rx="5"></rect>
                <rect id="Rectangle-Copy-42" fill="#00B0FF" x="450" y="73" width="23" height="24" rx="5"></rect>
                <rect id="Rectangle-Copy-14" fill="#FF8B00" x="114" y="75" width="23" height="24" rx="5"></rect>
                <rect id="Rectangle-Copy-27" fill="#FF8B00" x="301" y="75" width="23" height="24" rx="5"></rect>
                <rect id="Rectangle-Copy-43" fill="#00B0FF" x="488" y="73" width="23" height="24" rx="5"></rect>
                <rect id="Rectangle-Copy-3" fill="#00B0FF" x="0" y="153" width="23" height="24" rx="5"></rect>
                <rect id="Rectangle-Copy-28" fill="#00B0FF" x="187" y="153" width="23" height="24" rx="5"></rect>
                <rect id="Rectangle-Copy-44" fill="#FF8B00" x="374" y="151" width="23" height="24" rx="5"></rect>
                <rect id="Rectangle-Copy-7" fill="#FF8B00" x="38" y="153" width="23" height="24" rx="5"></rect>
                <rect id="Rectangle-Copy-29" fill="#00B0FF" x="225" y="153" width="23" height="24" rx="5"></rect>
                <rect id="Rectangle-Copy-45" fill="#FF8B00" x="412" y="151" width="23" height="24" rx="5"></rect>
                <rect id="Rectangle-Copy-11" fill="#00B0FF" x="76" y="153" width="23" height="24" rx="5"></rect>
                <rect id="Rectangle-Copy-30" fill="#FF8B00" x="263" y="153" width="23" height="24" rx="5"></rect>
                <rect id="Rectangle-Copy-46" fill="#00B0FF" x="450" y="151" width="23" height="24" rx="5"></rect>
                <rect id="Rectangle-Copy-15" fill="#FF8B00" x="114" y="153" width="23" height="24" rx="5"></rect>
                <rect id="Rectangle-Copy-31" fill="#FF8B00" x="301" y="153" width="23" height="24" rx="5"></rect>
                <rect id="Rectangle-Copy-47" fill="#00B0FF" x="488" y="151" width="23" height="24" rx="5"></rect>
                <text id="Cycle-One" font-family="SofiaPro-Bold, Sofia Pro" font-size="20" font-weight="bold" letter-spacing="0.6" fill="#000000" fill-opacity="0.6">
                    <tspan x="18.86" y="16">Cycle One</tspan>
                </text>
                <text id="Cycle-Two" font-family="SofiaPro-Bold, Sofia Pro" font-size="20" font-weight="bold" letter-spacing="0.6" fill="#000000" fill-opacity="0.6">
                    <tspan x="207.3" y="16">Cycle Two</tspan>
                </text>
                <text id="Cycle-Three" font-family="SofiaPro-Bold, Sofia Pro" font-size="20" font-weight="bold" letter-spacing="0.6" fill="#000000" fill-opacity="0.6">
                    <tspan x="385.2" y="14">Cycle Three</tspan>
                </text>
            </g>
        </g>
    </g>
</svg>