<?xml version="1.0" encoding="UTF-8"?>
<svg width="568px" height="176px" viewBox="0 0 568 176" version="1.1" xmlns="http://www.w3.org/2000/svg" xmlns:xlink="http://www.w3.org/1999/xlink">
    <!-- Generator: Sketch 51.3 (57544) - http://www.bohemiancoding.com/sketch -->
    <title>Group</title>
    <desc>Created with Sketch.</desc>
    <defs></defs>
    <g id="Page-1" stroke="none" stroke-width="1" fill="none" fill-rule="evenodd">
        <g id="Group" transform="translate(0.000000, 1.000000)">
            <rect id="Rectangle" fill="#00B0FF" x="0" y="34" width="23" height="24" rx="5"></rect>
            <rect id="Rectangle-Copy-12" fill="#FF8B00" x="135" y="34" width="23" height="24" rx="5"></rect>
            <rect id="Rectangle-Copy-4" fill="#00B0FF" x="38" y="34" width="23" height="24" rx="5"></rect>
            <rect id="Rectangle-Copy-13" fill="#FF8B00" x="173" y="34" width="23" height="24" rx="5"></rect>
            <rect id="Rectangle-Copy-8" fill="#00B0FF" x="76" y="34" width="23" height="24" rx="5"></rect>
            <rect id="Rectangle-Copy-14" fill="#FF8B00" x="211" y="34" width="23" height="24" rx="5"></rect>
            <rect id="Rectangle-Copy-2" fill="#00B0FF" x="0" y="112" width="23" height="24" rx="5"></rect>
            <rect id="Rectangle-Copy-15" fill="#FF8B00" x="135" y="112" width="23" height="24" rx="5"></rect>
            <rect id="Rectangle-Copy-5" fill="#00B0FF" x="38" y="112" width="23" height="24" rx="5"></rect>
            <rect id="Rectangle-Copy-16" fill="#FF8B00" x="173" y="112" width="23" height="24" rx="5"></rect>
            <rect id="Rectangle-Copy-9" fill="#00B0FF" x="76" y="112" width="23" height="24" rx="5"></rect>
            <rect id="Rectangle-Copy-17" fill="#FF8B00" x="211" y="112" width="23" height="24" rx="5"></rect>
            <rect id="Rectangle-Copy" fill="#00B0FF" x="0" y="73" width="23" height="24" rx="5"></rect>
            <rect id="Rectangle-Copy-18" fill="#FF8B00" x="135" y="73" width="23" height="24" rx="5"></rect>
            <rect id="Rectangle-Copy-6" fill="#00B0FF" x="38" y="73" width="23" height="24" rx="5"></rect>
            <rect id="Rectangle-Copy-19" fill="#FF8B00" x="173" y="73" width="23" height="24" rx="5"></rect>
            <rect id="Rectangle-Copy-10" fill="#00B0FF" x="76" y="73" width="23" height="24" rx="5"></rect>
            <rect id="Rectangle-Copy-20" fill="#FF8B00" x="211" y="73" width="23" height="24" rx="5"></rect>
            <rect id="Rectangle-Copy-3" fill="#00B0FF" x="0" y="151" width="23" height="24" rx="5"></rect>
            <rect id="Rectangle-Copy-21" fill="#FF8B00" x="135" y="151" width="23" height="24" rx="5"></rect>
            <rect id="Rectangle-Copy-7" fill="#00B0FF" x="38" y="151" width="23" height="24" rx="5"></rect>
            <rect id="Rectangle-Copy-22" fill="#FF8B00" x="173" y="151" width="23" height="24" rx="5"></rect>
            <rect id="Rectangle-Copy-11" fill="#00B0FF" x="76" y="151" width="23" height="24" rx="5"></rect>
            <rect id="Rectangle-Copy-23" fill="#FF8B00" x="211" y="151" width="23" height="24" rx="5"></rect>
            <text id="A-balanced-dataset" font-family="SofiaPro-Bold, Sofia Pro" font-size="20" font-weight="bold" letter-spacing="0.6" fill="#000000" fill-opacity="0.6">
                <tspan x="21.09" y="14">A balanced dataset</tspan>
            </text>
            <rect id="Rectangle" fill="#00B0FF" x="334" y="34" width="23" height="24" rx="5"></rect>
            <rect id="Rectangle-Copy-4" fill="#00B0FF" x="372" y="34" width="23" height="24" rx="5"></rect>
            <rect id="Rectangle-Copy-8" fill="#00B0FF" x="410" y="34" width="23" height="24" rx="5"></rect>
            <rect id="Rectangle-Copy-24" fill="#00B0FF" x="448" y="34" width="23" height="24" rx="5"></rect>
            <rect id="Rectangle-Copy-28" fill="#00B0FF" x="486" y="34" width="23" height="24" rx="5"></rect>
            <rect id="Rectangle-Copy-14" fill="#FF8B00" x="545" y="34" width="23" height="24" rx="5"></rect>
            <rect id="Rectangle-Copy-2" fill="#00B0FF" x="334" y="112" width="23" height="24" rx="5"></rect>
            <rect id="Rectangle-Copy-5" fill="#00B0FF" x="372" y="112" width="23" height="24" rx="5"></rect>
            <rect id="Rectangle-Copy-9" fill="#00B0FF" x="410" y="112" width="23" height="24" rx="5"></rect>
            <rect id="Rectangle-Copy-25" fill="#00B0FF" x="448" y="112" width="23" height="24" rx="5"></rect>
            <rect id="Rectangle-Copy-29" fill="#00B0FF" x="486" y="112" width="23" height="24" rx="5"></rect>
            <rect id="Rectangle-Copy-17" fill="#FF8B00" x="545" y="112" width="23" height="24" rx="5"></rect>
            <rect id="Rectangle-Copy" fill="#00B0FF" x="334" y="73" width="23" height="24" rx="5"></rect>
            <rect id="Rectangle-Copy-6" fill="#00B0FF" x="372" y="73" width="23" height="24" rx="5"></rect>
            <rect id="Rectangle-Copy-10" fill="#00B0FF" x="410" y="73" width="23" height="24" rx="5"></rect>
            <rect id="Rectangle-Copy-26" fill="#00B0FF" x="448" y="73" width="23" height="24" rx="5"></rect>
            <rect id="Rectangle-Copy-30" fill="#00B0FF" x="486" y="73" width="23" height="24" rx="5"></rect>
            <rect id="Rectangle-Copy-20" fill="#FF8B00" x="545" y="73" width="23" height="24" rx="5"></rect>
            <rect id="Rectangle-Copy-3" fill="#00B0FF" x="334" y="151" width="23" height="24" rx="5"></rect>
            <rect id="Rectangle-Copy-7" fill="#00B0FF" x="372" y="151" width="23" height="24" rx="5"></rect>
            <rect id="Rectangle-Copy-11" fill="#00B0FF" x="410" y="151" width="23" height="24" rx="5"></rect>
            <rect id="Rectangle-Copy-27" fill="#00B0FF" x="448" y="151" width="23" height="24" rx="5"></rect>
            <rect id="Rectangle-Copy-31" fill="#00B0FF" x="486" y="151" width="23" height="24" rx="5"></rect>
            <rect id="Rectangle-Copy-23" fill="#FF8B00" x="545" y="151" width="23" height="24" rx="5"></rect>
            <text id="An-unbalanced-datase" font-family="SofiaPro-Bold, Sofia Pro" font-size="20" font-weight="bold" letter-spacing="0.6" fill="#000000" fill-opacity="0.6">
                <tspan x="336.49" y="14">An unbalanced dataset</tspan>
            </text>
        </g>
    </g>
</svg>